<svg viewBox="0 0 128 128" xmlns="http://www.w3.org/2000/svg" fill-rule="evenodd" clip-rule="evenodd" stroke-linejoin="round" stroke-miterlimit="2"><path d="M64 28c19.85 0 36 16.15 36 36s-16.15 36-36 36-36-16.15-36-36 16.15-36 36-36m0-24C30.86 4 4 30.86 4 64s26.86 60 60 60 60-26.86 60-60S97.14 4 64 4z" fill="url(#_Linear1)" fill-rule="nonzero"/><path d="M64 7c31.43 0 57 25.57 57 57s-25.57 57-57 57S7 95.43 7 64 32.57 7 64 7m0 96c21.5 0 39-17.5 39-39S85.5 25 64 25 25 42.5 25 64s17.5 39 39 39m0-99C30.86 4 4 30.86 4 64s26.86 60 60 60 60-26.86 60-60S97.14 4 64 4zm0 96c-19.85 0-36-16.15-36-36s16.15-36 36-36 36 16.15 36 36-16.15 36-36 36z" fill="#424242" fill-rule="nonzero" opacity=".2"/><defs><linearGradient id="_Linear1" x1="0" y1="0" x2="1" y2="0" gradientUnits="userSpaceOnUse" gradientTransform="matrix(0 120.23 -120.23 0 64 3.25)"><stop offset="0" stop-color="#ff5252"/><stop offset=".45" stop-color="#ee3030"/><stop offset="1" stop-color="#d50000"/></linearGradient></defs></svg>