<svg viewBox="0 0 1280 640" xmlns="http://www.w3.org/2000/svg" fill-rule="evenodd" clip-rule="evenodd" stroke-linejoin="round" stroke-miterlimit="2"><path fill="#fff" d="M0 0h1279.992v640H0z"/><path d="M64 28c19.85 0 36 16.15 36 36s-16.15 36-36 36-36-16.15-36-36 16.15-36 36-36m0-24C30.86 4 4 30.86 4 64s26.86 60 60 60 60-26.86 60-60S97.14 4 64 4z" fill="url(#_Linear1)" fill-rule="nonzero" transform="matrix(1.5 0 0 1.5 240 224)"/><path d="M336 234.5c47.145 0 85.5 38.355 85.5 85.5s-38.355 85.5-85.5 85.5-85.5-38.355-85.5-85.5 38.355-85.5 85.5-85.5m0 144c32.25 0 58.5-26.25 58.5-58.5s-26.25-58.5-58.5-58.5-58.5 26.25-58.5 58.5 26.25 58.5 58.5 58.5m0-148.5c-49.71 0-90 40.29-90 90s40.29 90 90 90 90-40.29 90-90-40.29-90-90-90zm0 144c-29.775 0-54-24.225-54-54s24.225-54 54-54 54 24.225 54 54-24.225 54-54 54z" fill="#424242" fill-rule="nonzero" opacity=".2"/><g font-family="'IBMPlexSans','IBM Plex Sans',sans-serif" font-size="40" fill="#2f2f2f"><text x="80" y="285.6" transform="translate(432 84)">A r<tspan x="129.56" y="285.6">e</tspan>asonable ESLint shar<tspan x="525.16" y="285.6">e</tspan>able</text><text x="80" y="333.6" transform="translate(432 84)">c<tspan x="99.88" y="333.6">o</tspan>nﬁg</text></g><g font-family="'IBMPlexSans-SemiBold','IBM Plex Sans',sans-serif" font-weight="600" font-size="88"><text x="80" y="388" fill="#e7e7e7" transform="translate(432 -176)">NickK<tspan x="320.856px 370.048px 403.664px" y="388px 388px 388px">ara</tspan>mo<tspan x="580.016px 611.08px 640.12px" y="388px 388px 388px">ff/</tspan></text><text x="80" y="476" fill="#2f2f2f" transform="translate(432 -176)">eslint<tspan x="306.688px 342.944px 387.648px" y="476px 476px 476px">-co</tspan>nﬁg</text></g><defs><linearGradient id="_Linear1" x1="0" y1="0" x2="1" y2="0" gradientUnits="userSpaceOnUse" gradientTransform="matrix(0 120.23 -120.23 0 64 3.25)"><stop offset="0" stop-color="#ff5252"/><stop offset=".45" stop-color="#ee3030"/><stop offset="1" stop-color="#d50000"/></linearGradient></defs></svg>